<?xml version="1.0" encoding="UTF-8"?>
<svg id="Layer_1" data-name="Layer 1" xmlns="http://www.w3.org/2000/svg" version="1.1" viewBox="0 0 40 40">
  <defs>
    <style>
      .cls-1 {
        fill: #265888;
      }

      .cls-1, .cls-2, .cls-3, .cls-4 {
        stroke-width: 0px;
      }

      .cls-2 {
        fill: none;
      }

      .cls-3 {
        fill: #e97824;
      }

      .cls-4 {
        fill: #fff;
      }
    </style>
  </defs>
  <g id="vlpa">
    <rect class="cls-2" x="-1.82" y=".52" width="126.53" height="33.98"/>
    <g>
      <path class="cls-4" d="M15.65,20.98c.14-2.53,1.38-4.75,3.25-6.33,1.83-1.55,4.3-2.5,6.99-2.5s5.15.95,6.98,2.5c1.87,1.58,3.1,3.81,3.25,6.33.14,2.6-.9,5.01-2.73,6.8-1.87,1.82-4.52,2.96-7.5,2.96s-5.64-1.14-7.5-2.96c-1.83-1.79-2.87-4.2-2.73-6.8h0Z"/>
      <g>
        <path class="cls-1" d="M20.63,21.2c.07-1.3.71-2.44,1.67-3.25.94-.8,2.2-1.28,3.58-1.28s2.64.49,3.58,1.28c.96.81,1.59,1.95,1.67,3.25.07,1.33-.46,2.57-1.4,3.49-.96.93-2.32,1.52-3.85,1.52s-2.89-.59-3.85-1.52c-.94-.92-1.47-2.16-1.4-3.49h0Z"/>
        <path class="cls-3" d="M12.27,23.83c0,.51.17,1.49.41,2.26.51,1.63,1.38,3.14,2.58,4.47,1.24,1.37,2.76,2.46,4.52,3.24,1.85.82,3.85,1.24,5.93,1.23,2.08,0,4.08-.43,5.93-1.25,1.76-.79,3.28-1.89,4.51-3.26,1.2-1.33,2.07-2.85,2.58-4.48.26-.82.42-1.66.48-2.5.06-.83.04-1.65-.08-2.48-.23-1.61-.79-3.12-1.65-4.5-.79-1.27-1.8-2.38-3-3.31h0S22.34,3.93,22.34,3.93c-.01,0-.02-.02-.03-.02-.8-.61-2.14-.61-3.01,0-.89.62-.99,1.65-.2,2.29h0s5.07,4.12,5.07,4.12l-15.44.02h-.02c-1.28,0-2.5.84-2.75,1.9-.25,1.08.62,1.97,1.94,1.98h0s7.83-.01,7.83-.01L1.75,24.93s-.04.03-.05.04c-1.32,1.01-1.74,2.69-.91,3.75.84,1.08,2.63,1.08,3.96,0l7.62-6.24s-.11.84-.1,1.35h0ZM31.85,26.65c-1.57,1.6-3.77,2.51-6.15,2.51-2.38,0-4.58-.9-6.15-2.49-.77-.78-1.33-1.67-1.68-2.63-.34-.94-.47-1.93-.39-2.94.08-.98.38-1.92.84-2.76.46-.83,1.09-1.58,1.87-2.22,1.53-1.24,3.47-1.92,5.5-1.92,2.03,0,3.98.66,5.51,1.9.78.63,1.41,1.38,1.87,2.21.47.85.76,1.78.84,2.76.09,1-.05,2-.39,2.93-.35.96-.91,1.85-1.68,2.63h0Z"/>
      </g>
    </g>
  </g>
</svg>