<?xml version="1.0" encoding="UTF-8"?>
<svg id="Layer_1" data-name="Layer 1" xmlns="http://www.w3.org/2000/svg" version="1.1" viewBox="0 0 40 40">
  <defs>
    <style>
      .cls-1 {
        fill: #669ad2;
      }

      .cls-1, .cls-2, .cls-3, .cls-4 {
        stroke-width: 0px;
      }

      .cls-2 {
        fill: #035a9c;
      }

      .cls-3 {
        fill: #184781;
      }

      .cls-4 {
        fill: #fff;
      }
    </style>
  </defs>
  <path class="cls-2" d="M37.17,29.91c.28-.48.45-1.02.45-1.5V11.59c0-.48-.17-1.02-.45-1.5l-17.17,9.91,17.17,9.91Z"/>
  <path class="cls-3" d="M21.53,39.46l14.56-8.41c.42-.24.8-.66,1.08-1.14l-17.17-9.91L2.83,29.91c.28.48.66.9,1.08,1.14l14.56,8.41c.84.48,2.21.48,3.05,0Z"/>
  <path class="cls-1" d="M37.17,10.09c-.28-.48-.66-.9-1.08-1.14L21.53.54c-.84-.48-2.21-.48-3.05,0L3.91,8.95c-.84.48-1.53,1.67-1.53,2.64v16.82c0,.48.17,1.02.45,1.5l17.17-9.91,17.17-9.91Z"/>
  <path class="cls-4" d="M20,31.74c-6.48,0-11.74-5.27-11.74-11.74s5.27-11.74,11.74-11.74c4.18,0,8.08,2.25,10.17,5.87l-5.08,2.94c-1.05-1.81-3-2.94-5.09-2.94-3.24,0-5.87,2.63-5.87,5.87s2.63,5.87,5.87,5.87c2.09,0,4.04-1.13,5.09-2.94l5.08,2.94c-2.09,3.62-5.99,5.87-10.17,5.87Z"/>
  <polygon class="cls-4" points="31.74 19.35 30.44 19.35 30.44 18.04 29.13 18.04 29.13 19.35 27.83 19.35 27.83 20.65 29.13 20.65 29.13 21.96 30.44 21.96 30.44 20.65 31.74 20.65 31.74 19.35"/>
  <polygon class="cls-4" points="36.64 19.35 35.33 19.35 35.33 18.04 34.03 18.04 34.03 19.35 32.72 19.35 32.72 20.65 34.03 20.65 34.03 21.96 35.33 21.96 35.33 20.65 36.64 20.65 36.64 19.35"/>
</svg>