<?xml version="1.0" encoding="UTF-8"?>
<svg id="Layer_1" data-name="Layer 1" xmlns="http://www.w3.org/2000/svg" version="1.1" viewBox="0 0 40 40">
  <defs>
    <style>
      .cls-1 {
        fill: #f7944c;
      }

      .cls-1, .cls-2, .cls-3, .cls-4 {
        stroke-width: 0px;
      }

      .cls-2 {
        fill: #f36d21;
      }

      .cls-3 {
        fill: #93401f;
      }

      .cls-4 {
        fill: #fff;
      }
    </style>
  </defs>
  <g id="g8">
    <path id="path8" class="cls-1" d="M7.51.35L1.52,4.01l.03.02,1.17-.1L7.34,1.26l.16-.91Z"/>
    <path id="path1" class="cls-1" d="M7.45.4l.06-.06c-.01,9.2-.02,18.41,0,27.61-1.02.61-5.31,3.2-5.98,3.6,0-9.18,0-18.36,0-27.55C2.89,2.75,6.28,1.7,7.45.4Z"/>
  </g>
  <g id="_ff6b00ff" data-name="#ff6b00ff">
    <path id="path2" class="cls-2" d="M7.51.35h26.35c.94.16,1.84.88,1.88,1.88.03,1.43,0,2.87.01,4.3,0,7.14,0,14.28,0,21.42-9.41.02-18.82,0-28.24,0-.02-9.2-.02-18.41,0-27.61M17.48,6.57c0,5.09,0,10.17,0,15.26,1.27,0,2.55,0,3.82,0,0-2.05,0-4.1,0-6.16,1.67,0,3.34-.01,5.01,0,.02-.9.02-1.81,0-2.72-1.67.02-3.33,0-5,0,0-1.21.01-2.42-.01-3.63,1.98-.04,3.97,0,5.95-.02,0-.92,0-1.83,0-2.75-3.25,0-6.51,0-9.76,0Z"/>
  </g>
  <g id="_933c00ff" data-name="#933c00ff">
    <path id="path3" class="cls-3" d="M35.74,6.53c.91,0,1.82-.02,2.73.02-.04,11.03,0,22.07-.02,33.1H6.6c-.89-.19-1.76-.87-1.8-1.85-.03-2.74,0-5.48-.01-8.22.91-.54,1.81-1.09,2.72-1.64,9.41,0,18.82,0,28.24,0,0-7.14,0-14.28,0-21.42M25.36,30.91c-.92.49-1.02,2.01-.14,2.57.65.39,1.43.49,2.12.8.43.16.47.8.15,1.08-.64.38-1.7.14-1.72-.73-.45,0-.89,0-1.33,0,.03.5.2,1.02.59,1.36.62.57,1.54.62,2.34.54.75-.08,1.56-.54,1.72-1.34.09-.57.06-1.26-.43-1.64-.67-.55-1.6-.58-2.35-.99-.34-.16-.35-.7-.04-.89.57-.33,1.45-.08,1.51.65.44,0,.88,0,1.32,0-.04-.65-.41-1.29-1.03-1.54-.86-.34-1.89-.33-2.71.12M14.47,30.69c.03,1.92,0,3.85.01,5.77.47,0,.95,0,1.42.01.05-.79,0-1.58.03-2.37.63,0,1.26,0,1.89,0,0-.34,0-.68,0-1.01-.63,0-1.26,0-1.89,0,0-.45,0-.9-.01-1.35.75-.04,1.51,0,2.26-.02,0-.35,0-.7,0-1.04-1.24,0-2.47-.02-3.7.01M18.91,30.68c.05,1.5-.07,3.01.07,4.51.27,1.45,2.28,1.8,3.26.85.04.14.08.28.13.41.4,0,.81,0,1.21.02.06-1.93.02-3.87.02-5.8-.48,0-.96,0-1.44.02.02,1.35,0,2.7.01,4.06.13.96-1.74,1.13-1.8.13-.04-1.4,0-2.8-.02-4.19-.48,0-.96,0-1.44,0Z"/>
  </g>
  <g id="_ffffffff" data-name="#ffffffff">
    <path id="path4" class="cls-4" d="M17.48,6.57c3.25,0,6.51,0,9.76,0,0,.92,0,1.83,0,2.75-1.98.01-3.97-.02-5.95.02.02,1.21,0,2.42.01,3.63,1.67,0,3.33.01,5,0,.03.9.02,1.81,0,2.72-1.67-.02-3.34,0-5.01,0,0,2.05,0,4.11,0,6.16-1.27.01-2.55,0-3.82,0,0-5.09,0-10.17,0-15.26Z"/>
    <path id="path5" class="cls-4" d="M25.36,30.91c.82-.45,1.85-.46,2.71-.12.63.25,1,.89,1.03,1.54-.44,0-.88,0-1.32,0-.06-.73-.94-.98-1.51-.65-.31.19-.29.73.04.89.75.4,1.68.43,2.35.99.49.39.52,1.07.43,1.64-.16.79-.97,1.26-1.72,1.34-.8.08-1.72.03-2.34-.54-.39-.34-.56-.86-.59-1.36.45,0,.89,0,1.33,0,.02.86,1.08,1.11,1.72.73.32-.28.28-.92-.15-1.08-.69-.31-1.47-.41-2.12-.8-.89-.56-.78-2.09.14-2.57Z"/>
    <path id="path6" class="cls-4" d="M14.47,30.69c1.23-.03,2.47,0,3.7-.01,0,.35,0,.7,0,1.04-.76.01-1.51-.02-2.26.02.02.45.02.9.01,1.35.63,0,1.26,0,1.89,0,0,.34,0,.68,0,1.01-.63,0-1.26,0-1.89,0-.02.79.03,1.58-.03,2.37-.47-.01-.95-.01-1.42-.01,0-1.92.02-3.85-.01-5.77Z"/>
    <path id="path7" class="cls-4" d="M18.91,30.68c.48,0,.96,0,1.44,0,0,1.4-.03,2.8.02,4.19.06,1,1.92.83,1.8-.13-.01-1.35.01-2.7-.01-4.06.48-.01.96-.01,1.44-.02,0,1.93.04,3.87-.02,5.8-.4-.02-.81-.02-1.21-.02-.04-.14-.09-.28-.13-.41-.97.96-2.99.6-3.26-.85-.14-1.5-.02-3.01-.07-4.51Z"/>
  </g>
</svg>