<?xml version="1.0" encoding="UTF-8"?>
<svg id="Layer_1" xmlns="http://www.w3.org/2000/svg" version="1.1" viewBox="0 0 40 40">
  <!-- Generator: Adobe Illustrator 29.7.1, SVG Export Plug-In . SVG Version: 2.1.1 Build 8)  -->
  <defs>
    <style>
      .st0 {
        fill: #030303;
      }

      .st1 {
        fill: #ed1c24;
      }

      .st2 {
        fill: #fff;
      }
    </style>
  </defs>
  <g id="g1">
    <g id="g121">
      <g id="g4">
        <g id="g120">
          <path id="path4" class="st2" d="M13.43,3.67c-.14,0-.17.04-.23.06-.05.03-.1.05-.16.09-.92.54-1.66,1.66-2.21,3.05-.55,1.39-.9,3.06-.93,4.71v.52s.18-.02.18-.02c-.39.03-1.02.14-1.44.24-.1.02-.19.05-.27.06-.06-.11-.14-.27-.22-.46-.17-.39-.36-.88-.46-1.24-.4-1.4-.54-3.34-.34-4.24l.07-.3c.04-.19-.08-.38-.27-.42-.09-.02-.19,0-.27.05l-.08.05c-.23.15-.34.34-.49.58-.16.25-.31.52-.4.77-.62,1.62-.41,4.09.44,6-.02.01-.03.01-.05.03-1.84.99-3.06,2.53-3.48,4.14-.4,1.54-.05,3.15,1.15,4.31-.74.42-1.4,1.17-1.76,2.01-.06.13-.09.18-.09.19,0,0,0,0,0,0C.65,24.45,0,26.06.08,27.69s.88,3.36,2.38,4.36c1.15.76,2.78,1.13,4.09,1.15.65,0,1.22-.06,1.64-.27.15-.08.29-.18.39-.32.06.11.14.2.23.28.18.15.43.22.67.18s.45-.16.66-.35c.56-.52.85-.7,1.3-.86l.18-.06.49.25c1.3.65,2.48,1.03,3.54,1.13.15.01.4.04.55.05,1.7.17,3.56-.19,4.94-.97.09-.05.17-.09.23-.13.03,0,.05.02.08.03.12.05.28.11.46.19.35.15.76.33.98.43.37.18.7.27,1.01.26s.6-.16.76-.42.16-.57.08-.88c-.06-.24-.17-.5-.33-.77.13-.05.26-.12.37-.21.24-.18.47-.4.47-.76,0-.34-.16-.64-.37-.94s-.49-.6-.81-.87c-.59-.51-1.26-.94-1.91-.99-.02-.02-.05-.04-.07-.07-.59-.63-1.55-.96-2.49-.89-.11,0-.42-.09-.65-.25-.04-.03-.08-.06-.12-.09.32-.06.59-.12.83-.21.08-.03.14-.04.21-.05.03,0,.05,0,.07,0,.05,0,.09.01.19-.03,0,0,0,0,0,0,0,0,0,0,.01,0,.97-.01,2.26-.36,2.95-.85h0s-.04.03-.04.03l.11.04c2.58.87,5.61.75,8.36-.1s5.24-2.42,6.7-4.53c.83-1.21,1.32-2.29,1.52-3.22.19-.93.09-1.72-.36-2.26-.44-.54-1.19-.75-2.06-.6-.85.14-1.84.6-2.96,1.4-.02,0-.04,0-.14-.02-1.09-.22-2.44.17-3.55.92.09-.19.15-.39.18-.58l-.1.02s.07-.01.1-.02c0-.02,0-.04.01-.05v.05c1.68-.33,3.11-1.86,3.34-3.6h0s.02-.12.02-.12h-.01c1.07-.33,2.05-1.16,2.73-2.09.68-.93,1.1-1.99.81-2.88-.2-.61-.81-.95-1.55-1.11-.74-.15-1.66-.14-2.68,0-2.05.29-4.52,1.11-6.62,2.36-2.66,1.59-6.12,4.79-7.79,7.18-.53-.91-1.5-1.7-2.69-2.3-1.29-.65-2.84-1.09-4.4-1.18h.12s0-.04,0-.04c-.18-2.14.5-5.54,1.53-7.58.05-.11.09-.18.12-.27.02-.05.05-.1.01-.24-.02-.07-.07-.17-.15-.22s-.17-.07-.22-.06ZM12.6,5.15c-.84,2.15-1.33,4.95-1.16,6.96l.03.35c.01.17.16.31.33.32h.19s0,.01,0,.01c1.45.08,2.92.49,4.12,1.1s2.12,1.42,2.51,2.22c.04.07.06.13.1.2.02.04.05.08.11.13s.2.11.32.09c.23-.04.25-.15.3-.21s.1-.14.16-.23c1.53-2.26,5.08-5.56,7.65-7.09,2.01-1.2,4.41-2,6.35-2.27.97-.14,1.83-.14,2.44-.01s.93.36,1.03.64c.17.51-.1,1.42-.71,2.24-.61.83-1.51,1.57-2.38,1.84h0s-.2.06-.2.06c-.13.04-.22.15-.24.29l-.05.34h0c-.19,1.43-1.5,2.8-2.87,3.02l-.15.03c-.15.03-.27.15-.29.31l-.02.2c-.02.16-.14.5-.29.71-.04.05-.07.1-.1.15-.03.06-.1.17-.05.34.05.16.16.23.22.26.06.03.11.05.16.08h0s.18.08.18.08c.12.05.26.04.36-.04l.18-.14c1-.76,2.38-1.14,3.24-.97.13.03.21.04.31.04.11,0,.25-.06.32-.1,1.08-.79,2.02-1.2,2.72-1.32.7-.12,1.14.04,1.4.36.26.32.38.88.21,1.68-.17.8-.61,1.82-1.41,2.97-1.34,1.94-3.69,3.45-6.32,4.26s-5.53.91-7.93.1l-.28-.09c-.11-.04-.22-.02-.31.05l-.11.08h0c-.44.31-1.77.71-2.55.72-.06,0-.11,0-.16,0-.01,0-.02.01-.03.02-.02,0-.03,0-.05-.01-.16.02-.3.05-.45.1-.26.09-.54.16-.97.23-.08.01-.15.03-.21.04-.03,0-.05.01-.08.02-.01,0-.03,0-.05.02-.01,0-.03.01-.05.03s-.09.02-.15.19c-.01.04-.02.08-.02.11h0c0,.23.11.39.22.53s.26.27.43.38c.32.22.7.39,1.1.36.73-.05,1.53.24,1.92.67.06.06.11.11.17.16.03.02.06.04.09.07s.06.06.21.06c.3,0,1.01.35,1.56.82.28.24.52.5.69.74s.25.46.25.55c0-.05-.04.08-.18.19s-.33.17-.44.17c-.03,0-.06-.01-.17.02-.05.02-.14.07-.2.16s-.06.19-.05.25c.02.12.05.15.07.19s.05.08.08.13c.21.31.34.59.38.79s.02.32,0,.37c-.03.04-.05.07-.18.08s-.37-.04-.67-.19c-.25-.12-.66-.3-1.02-.45-.18-.08-.35-.14-.48-.19-.07-.03-.12-.05-.17-.06-.02,0-.05-.02-.07-.02s-.03-.02-.12-.02-.1.01-.11.02-.02,0-.03.01c-.02,0-.03.01-.04.02-.03.01-.06.03-.09.05-.07.04-.16.09-.26.14-1.21.69-2.97,1.03-4.53.88-.16-.02-.4-.04-.55-.05-.94-.08-2.04-.43-3.29-1.05h0s-.62-.31-.62-.31c-.09-.04-.18-.05-.27-.02l-.32.11c-.54.19-.95.46-1.55,1.01-.13.12-.23.16-.29.17s-.07,0-.11-.03c-.07-.06-.2-.33-.16-.8h0s.03-.26.03-.26c.02-.19-.12-.36-.31-.38-.08,0-.17.01-.23.06l-.26.18c-.07.05-.14.1-.19.14-.03.02-.05.04-.07.05s-.02.01-.06.04c-.09.08-.11.17-.12.22s0,.08,0,.11c0,.05.02.08.03.12.02.07.05.13.08.19.06.11.05.14.04.16s-.04.07-.16.13c-.23.12-.73.21-1.32.2-1.17-.02-2.74-.39-3.71-1.03-1.28-.85-1.99-2.38-2.07-3.81-.07-1.43.46-2.68,1.6-3.13.08-.03.22-.11.3-.21s.12-.2.18-.35c.33-.76,1.02-1.5,1.66-1.78l.22-.1c.18-.08.25-.29.17-.46-.02-.05-.05-.09-.09-.12l-.23-.2c-1.14-.99-1.46-2.36-1.1-3.75.36-1.39,1.44-2.79,3.13-3.7.09-.05.15-.08.22-.12s.16-.09.22-.23.04-.28.01-.36c-.03-.08-.05-.13-.08-.2-.78-1.73-.95-4.13-.45-5.46-.02,1.07.15,2.35.46,3.43.12.41.31.92.49,1.33.09.21.18.39.26.53.04.07.08.13.12.19.02.03.04.06.08.09s.1.1.26.1c.09,0,.09,0,.12-.01s.08-.02.12-.03c.09-.02.21-.05.34-.08.36-.09,1-.2,1.32-.23h.12c.18-.02.32-.17.32-.35v-.84c.04-1.56.38-3.16.9-4.47.32-.8.71-1.48,1.12-1.98h0ZM18.9,15.88s0,.01-.01.02c-.02.02-.03,0,.01-.02ZM19.95,24.93s0,0,.01,0c0,0,0,0,.02,0,.01,0,.03,0,.07.02-.03-.01-.07-.02-.1-.03ZM19.91,24.94s-.09.04-.12.07h0s.06-.05.08-.06c.02,0,.03-.01.05-.01ZM22.17,27.19s.02.02.02.02c0,0,0,0-.01,0,0,0,0,0,0,0Z"/>
          <path id="path12" class="st1" d="M13.43,4.02s-.1.04-.22.1c-1.6.94-2.92,4.25-2.97,7.47v.84s-.14.01-.14.01c-.36.03-.99.14-1.38.23-.24.06-.46.11-.5.11-.12,0-.65-1.21-.87-1.99-.42-1.46-.57-3.39-.35-4.42l.07-.3-.08.05c-.19.12-.6.76-.76,1.19-.57,1.48-.38,3.93.45,5.76.13.29.14.26-.22.46-3.53,1.9-4.57,5.88-2.1,8.02l.23.2-.22.1c-.74.34-1.47,1.12-1.84,1.97-.13.29-.15.32-.28.38-2.62,1.03-2.38,5.71.4,7.55,2.12,1.41,6.39,1.47,5.65.08-.05-.1-.08-.19-.07-.21s.15-.11.29-.2l.26-.18-.03.26c-.11,1.07.48,1.56,1.14.95.58-.53.93-.76,1.43-.94l.32-.11.62.31c1.28.64,2.41,1,3.41,1.09.15.01.4.04.55.05,1.63.16,3.44-.19,4.73-.92.19-.11.36-.2.37-.2.08,0,1.23.48,1.7.71,1.34.65,1.84-.21.91-1.56-.13-.19-.13-.2-.03-.2.43,0,.97-.4.97-.71,0-.86-1.86-2.46-2.85-2.46-.03,0-.13-.08-.22-.17-.49-.53-1.37-.84-2.2-.78-.51.04-1.37-.54-1.37-.92h0s.12-.03.27-.06c.44-.07.74-.14,1.02-.24.13-.04.24-.07.37-.08-.02.01-.01.02.03.02.04,0,.06,0,.05-.02,0,0,0,0,0,0,.05,0,.09,0,.14,0,.87,0,2.18-.38,2.75-.79l.11-.08.28.09c4.98,1.67,11.86-.44,14.66-4.5,3.25-4.71,1.03-7.41-3.42-4.16-.07.05-.11.05-.35,0-1.02-.2-2.45.22-3.52,1.03l-.18.14-.18-.08c-.24-.11-.24-.1-.09-.32.18-.26.31-.61.34-.87l.02-.2.15-.03c1.55-.25,2.95-1.72,3.16-3.32l.05-.34.2-.06c1.94-.61,3.78-3.13,3.32-4.53-.6-1.79-6.23-1-10.34,1.45-2.64,1.57-6.18,4.87-7.76,7.2-.26.39-.24.38-.39.07-.89-1.81-3.92-3.35-6.92-3.51h-.19s-.03-.36-.03-.36c-.19-2.24.5-5.65,1.57-7.77.1-.2.14-.29.08-.29Z"/>
          <path id="path2" class="st0" d="M16.24,32.86c-.15-.02-.4-.04-.55-.05-1-.09-2.13-.45-3.41-1.09l-.62-.31-.32.11c-.5.18-.85.41-1.43.94-.66.61-1.25.12-1.14-.95l.03-.26-.26.18c-.14.1-.27.19-.29.2s.01.11.07.21c.74,1.39-3.53,1.33-5.65-.08-2.77-1.84-3.02-6.52-.4-7.55.13-.05.16-.09.28-.38.37-.85,1.09-1.63,1.84-1.97l.22-.1-.23-.2c-2.48-2.15-1.44-6.12,2.1-8.02.36-.19.35-.17.22-.46-.83-1.83-1.02-4.28-.45-5.76.17-.43.57-1.07.76-1.19l.08-.05-.07.3c-.23,1.03-.07,2.96.35,4.42.22.78.76,1.99.87,1.99.03,0,.26-.05.5-.11.39-.1,1.02-.21,1.38-.23h.12s.01-.85.01-.85c.05-3.22,1.37-6.53,2.97-7.47.29-.17.3-.15.13.19-1.07,2.12-1.76,5.53-1.57,7.77l.03.35h.19c3.01.17,6.04,1.71,6.92,3.52.15.31.13.32.39-.07,1.58-2.33,5.13-5.62,7.76-7.2,4.11-2.45,9.74-3.24,10.34-1.45.47,1.4-1.38,3.92-3.32,4.53l-.2.06-.05.34c-.21,1.6-1.61,3.07-3.16,3.32l-.15.03-.02.2c-.03.25-.17.6-.34.87-.15.23-.15.21.09.32l.18.08.18-.14c1.08-.82,2.5-1.24,3.52-1.03.25.05.29.05.35,0,4.46-3.24,6.67-.55,3.42,4.16-2.8,4.06-9.68,6.17-14.66,4.5l-.28-.09-.11.08c-.56.4-1.87.78-2.75.79-.23,0-.39.03-.59.09-.28.1-.58.17-1.02.24-.15.02-.27.05-.27.06,0,.38.86.96,1.37.92.83-.06,1.71.25,2.2.78.09.1.19.17.22.17.98,0,2.84,1.61,2.85,2.46,0,.31-.54.71-.97.71-.1,0-.1.01.03.2.93,1.35.42,2.21-.91,1.56-.47-.23-1.62-.71-1.7-.71-.01,0-.18.09-.37.2-1.29.73-3.11,1.08-4.73.92ZM7.28,32.16c.48-.1.48-.12-.12-.57-1.09-.83-1.88-1.94-2.11-2.96-.03-.13-.08-.22-.2-.35-.24-.25-.58-.88-.58-1.08,0-.02.13.1.29.25.31.3.63.52,1.09.71.4.17.84.41,1.17.65.26.19.29.2.29.12,0-.05.01-.21.02-.37.1-1.79-1.42-2.96-3.14-2.4-.04.01.04-.05.19-.15s.38-.21.52-.25c.36-.11.36-.11.09-.37-1.99-1.98-4.43.48-3.42,3.45.75,2.21,3.57,3.79,5.92,3.31h0ZM23.68,31.89c0-.53-.36-1.08-.71-1.08-.29,0-1.03-.11-1.58-.23-.28-.06-.51-.11-.52-.11-.06,0,2.22,1.44,2.59,1.64.21.11.22.09.22-.22h0ZM9.92,31.71c.24-.25.54-.5.67-.58.32-.19.32-.2-.15-.61-.62-.55-1.43.6-1.05,1.5.07.17.03.2.53-.31ZM17.43,31.97c2.09-.3,2.89-1.85,1.35-2.63l-.27-.13-.34.28c-1.27,1.01-2.85,1.62-4.41,1.7l-.56.03.28.14c1.2.59,2.62.81,3.95.63h0ZM20.65,31.53c.14-.1.17-.14.14-.18-.04-.04-.55.35-.55.42,0,.03.24-.11.42-.24h0ZM7.86,31.3c.06-.04.26-.2.44-.37.31-.28.83-.7,1.18-.92.2-.13.2-.17,0-.37-.34-.37-.7-.35-1.18.07-.6.52-.99,1.94-.44,1.59ZM14.83,30.68c1.1-.23,2.16-.72,3-1.38l.38-.3-.27-.21c-.33-.26-.74-.69-.96-1-.19-.28-.14-.28-.56,0-1.89,1.21-4.66,1.9-5.85,1.45-.13-.05-.11-.01.17.29,1.02,1.13,2.37,1.52,4.09,1.15h0ZM7.17,30.6c0-.39.63-1.18,1.22-1.52l.28-.16-.46-.24-.46-.24-.04.29c-.14.94-.38,1.23-.75.93-.68-.56-.83-.53-.51.08.26.5.73,1.07.73.88ZM23.71,30.21c.49-.13.53-.16.5-.41-.06-.64-.99-1.44-1.97-1.68-.93-.24-2.07.14-2.34.78l-.06.13.16.17c.52.54,1.54.98,2.57,1.11.25.03.85-.01,1.13-.09h0ZM12.58,28.82c1.24-.17,2.54-.65,3.53-1.33.48-.33.46-.27.28-.62-.16-.31-.3-.72-.38-1.07-.04-.21-.05-.22-.27-.35-.27-.16-.24-.16-.49,0-2.15,1.37-5.64,1.86-6.98.97-.2-.13-.2-.11,0,.27.89,1.73,2.26,2.4,4.31,2.13h0ZM19.6,28.54c.3-.43.88-.8,1.45-.92.37-.08.37-.09,0-.28-1.26-.62-3.23.12-2.38.9.62.56.72.59.93.29h0ZM9.11,28.48s-.07-.06-.16-.11c-.24-.14-.75-.6-1.44-1.29-.66-.66-.76-.73-.44-.3.11.15.26.39.33.54.19.4.52.66,1.29,1.01.35.16.41.18.41.15ZM18.16,27.38c.1-.1.27-.25.38-.32.38-.26-.28-.39-.82-.15-.22.1-.22.06.01.39.23.33.19.32.42.09ZM11.28,26.37c1.32-.19,3.15-.92,3.76-1.52,0,0-.04-.08-.1-.16-.37-.46-.54-1.03-.54-1.83v-.58s-.32.14-.32.14c-1.2.52-2.48.74-3.63.63-.49-.05-.76-.11-.51-.11.63-.01,2.31-.47,3.35-.91,2.45-1.05,4.07-2.76,4.37-4.61.35-2.13-2.31-4.22-5.37-4.22h-.23s0,.44,0,.44c0,.89-.3,1.14-.49.4-.68-2.65-.26-6.26,1.04-8.93.27-.57.27-.61-.02-.2-1.6,2.22-2.23,6.76-1.32,9.45.11.31.09.35-.13.32-.31-.04-.6-.48-.76-1.13l-.09-.35-.19.02c-.27.04-.85.16-1.19.25-.34.09-.33.05-.07.57.48.95.2,1.12-.39.23-1.36-2.04-2.21-5.58-1.75-7.36.07-.27.06-.3-.04-.09-.67,1.51-.41,3.87.68,6.22.44.96.98,1.86,1.22,2.07.1.09.1.09.02.11-.35.09-.72-.15-1.16-.76-.1-.13-.18-.25-.19-.26-.02-.02-.61.29-.93.49-2.6,1.68-2.91,4.82-.64,6.51.93.69,2.34,1.34,3.46,1.6l.13.03-.19.03c-.71.1-1.76-.03-2.5-.31-.26-.1-.25-.13-.13.46.55,2.58,2.21,3.73,4.85,3.35h0ZM8.61,20.35c-.18-.03-.46-.09-.6-.13-.3-.09-.47-.1-.65-.04-.15.05-.17.03-.1-.12.08-.18.24-.32.48-.41.35-.12.44-.1.27.09l-.1.1.1.04c1.09.41,4.13-.26,5.57-1.24.29-.2.31-.24.14-.28-.18-.03-.17-.06.1-.18.42-.2.94-.14,1.37.17.25.18-.1.25-.58.11-.14-.04-.26-.07-.27-.07s-.05.07-.1.16c-.64,1.1-3.72,2.08-5.64,1.8h0ZM6.32,18.64c-.42-.38-.57-.91-.49-1.63l.03-.24-.23-.1c-.25-.11-.26-.15-.04-.21.54-.15,1.49.08,2.65.64.64.31.89.27,1.13-.15.11-.19.13-.19.16.03.06.45-.29.9-.7.9-.07,0-.13,0-.13,0,0,0,.05.14.11.31.16.44.17.43-.18.37-.61-.1-1.21-.05-1.77.14-.39.13-.34.14-.54-.05h0ZM8.06,17.66c.16-.19-.24-.49-.49-.36-.11.06-.09.24.03.33.12.09.39.11.46.02ZM12.88,17.77c-.15-.17-.3-.5-.3-.65,0-.09-.02-.09-.15-.02-.26.15-.62,0-.78-.33q-.11-.23.08-.13c.2.1.51.11.7.02.14-.07.31-.21.86-.69.84-.74,1.5-1.01,1.95-.79.23.11.22.13-.09.21-.28.07-.3.09-.19.24.22.32.48,1.27.39,1.41-.02.02-.14.05-.29.07-.44.05-1.13.32-1.77.71-.26.16-.23.16-.41-.04h0ZM14.42,16.4c.2-.24.08-.59-.18-.54-.39.08-.45.65-.06.65.11,0,.16-.02.24-.11ZM5.52,25.07c.64-2.41-.91-3.48-2.14-1.49-.26.42-.26.41.11.48.57.11,1.11.44,1.62,1,.34.36.31.36.4.01h0ZM17.01,24.99c-.3-.1-.99-.61-.92-.68,0,0,.13.02.28.07.19.06.34.09.56.09.43,0,.44-.02.2-.31-.73-.86-1.11-2.3-.82-3.03.07-.18.03-.15-.4.27-.63.62-.76.86-.76,1.5,0,1.08.95,2.17,1.88,2.16h.19s-.22-.07-.22-.07ZM20.49,24.4c.23-.07.84-.4.81-.44,0,0-.12.02-.24.06-1.48.51-2.8,0-3.48-1.32-.19-.38-.18-.39.16-.07.2.19.37.31.6.43l.33.16h.45c.36,0,.47-.01.57-.07.15-.08.16-.06-.09-.33-.81-.91-1.37-3.03-1.03-3.94.06-.16.06-.16-.31.1-2.65,1.91-.82,6.39,2.22,5.41ZM28.36,23.72c3.32-.29,6.54-1.96,8.48-4.38,1.21-1.52,2.05-3.42,1.75-4.01-.36-.7-2.4-.05-3.8,1.21l-.19.17-.15-.08c-.92-.47-2.47-.04-3.74,1.05l-.28.24-.13-.07c-.62-.32-1.31-.23-2.25.29-1.55.86-2.89,1.1-4.13.74-.51-.15-.97-.37-.57-.28.4.09,1.47,0,2.26-.2,1.64-.42,2.91-1.37,3.47-2.6.18-.41.18-.4-.02-.4-.34,0-1.94-.27-2.42-.4-.07-.02.21-.04.82-.05,2.81-.07,4.48-.94,5.39-2.82.19-.4.19-.41,0-.41-.14,0-.74-.06-1.37-.14-.25-.03-.2-.05.3-.14,1.86-.31,3.45-1.37,4.46-2.97.84-1.33.39-1.76-1.65-1.61-4.15.31-8.81,2.95-12.45,7.08-1.81,2.05-2.36,3.77-1.74,5.47.1.28.18.44.42.84l.09.15-.2-.17c-.82-.69-1.29-2.1-1.08-3.23l.03-.15-.09.17c-1.76,3.3,3.36,7.19,8.82,6.72ZM30.85,18.13c.58-.54,1.53-1,2.37-1.15.31-.06,1.03-.11.78-.06-.12.02-.99.38-1.51.62-.23.1-.66.29-.97.41s-.62.25-.68.29c-.19.11-.19.08.01-.11h0ZM34.56,17.32c.44-.77,1.88-1.62,2.72-1.61.38,0,.39,0,.22.05-.59.17-1.8.82-2.59,1.39-.49.35-.45.34-.36.17h0ZM24.63,13.75c-.53-.36-.34-.74,1.02-2.1,2.01-2.01,4.99-3.61,7.37-3.97.15-.02.29-.05.31-.06.02-.01.03,0,.01.02-.01.02-.14.08-.28.12-2.53.81-4.49,2.25-6.34,4.63-.92,1.19-1.66,1.67-2.1,1.37h0ZM22.95,23.71s-.09-.07-.2-.13c-.9-.51-1.9-1.41-2.5-2.27-.24-.34-.41-.5-.8-.74-.07-.04-.03.07.18.52.45.96,1.21,1.74,2.15,2.21.4.2,1.17.46,1.17.4Z"/>
          <g id="g114">
            <path id="path114" class="st2" d="M23.46,32.11s.09.04.12.05c-.03,0-.07-.03-.12-.05Z"/>
            <path id="path111" class="st2" d="M3.49,31.36c.16.1.32.19.49.27-.17-.08-.33-.17-.49-.27Z"/>
            <path id="path110" class="st2" d="M13.48,31.34c.3.15.63.28.98.39-.34-.1-.67-.23-.98-.39Z"/>
            <path id="path107" class="st2" d="M22.55,30.78c.17.02.32.03.42.03.35,0,.71.55.71,1.08,0,.01,0,.03,0,.04-.07-.25-.43-.67-.85-.97-.1-.07-.18-.14-.18-.15,0,0-.04-.02-.11-.03h0Z"/>
            <path id="path106" class="st2" d="M21.35,30.57s.02,0,.04,0c.02,0,.03,0,.05,0-.03,0-.06-.01-.09-.02Z"/>
            <path id="path102" class="st2" d="M16.86,29.93c-.3.16-.61.3-.94.43.32-.12.64-.27.94-.43Z"/>
            <path id="path101" class="st2" d="M8.16,29.85c-.15.18-.3.42-.4.66.1-.23.24-.47.4-.66Z"/>
            <path id="path100" class="st2" d="M17.27,29.69c-.09.06-.18.11-.27.16.09-.05.18-.11.27-.16Z"/>
            <path id="path98" class="st2" d="M10.74,29.53c.23.25.49.48.76.67-.27-.18-.53-.4-.76-.67Z"/>
            <path id="path97" class="st2" d="M18.78,29.34c.09.05.18.1.25.15-.08-.05-.16-.1-.25-.15Z"/>
            <path id="path93" class="st2" d="M13.17,28.7c-.2.04-.4.09-.59.12-.08.01-.16.02-.25.03.27-.03.56-.08.84-.15Z"/>
            <path id="path92" class="st2" d="M3.75,28.6s.12.05.28.14c.49.27.5.28.62.56.35.8,1.15,1.79,1.82,2.26.12.09.23.17.23.17,0,.04-.09,0-.45-.2-1.06-.58-1.99-1.59-2.41-2.64-.08-.2-.12-.29-.08-.29Z"/>
            <path id="path90" class="st2" d="M9.07,28.45s.04.03.04.03c0,0,0,0,0,0,0,0-.01-.02-.04-.04h0Z"/>
            <path id="path89" class="st2" d="M7.75,28.42l.46.24.46.24-.28.16c-.58.34-1.22,1.14-1.22,1.52,0,.19-.47-.38-.73-.88-.31-.61-.16-.64.51-.08.37.31.61.02.75-.93l.04-.29Z"/>
            <path id="path88" class="st2" d="M21.62,28.05c.21,0,.42.02.63.07.98.25,1.91,1.05,1.97,1.68,0,.05,0,.09,0,.12-.06-.14-.53-.6-.86-.84-1.24-.91-2.74-1.07-3.3-.42.31-.37.93-.61,1.57-.62Z"/>
            <path id="path87" class="st2" d="M15.24,27.99c-.59.3-1.24.52-1.9.68.65-.15,1.3-.38,1.9-.68Z"/>
            <path id="path84" class="st2" d="M16.79,27.59c.06,0,.1.07.19.21.02.02.03.04.05.07-.02-.02-.04-.02-.05.02-.11.2-1.16.75-1.89.99-.64.21-1.65.39-1.87.33-.04,0-.21.01-.38.05-.16.04-.37.06-.6.08,1.31-.17,2.94-.74,4.19-1.54.21-.14.3-.2.37-.2Z"/>
            <path id="path83" class="st2" d="M16.1,27.49c-.26.18-.55.34-.85.49.3-.15.59-.31.85-.49Z"/>
            <path id="path82" class="st2" d="M19.79,27.11c.42-.03.87.04,1.25.23.38.19.38.19,0,.28-.01,0-.03,0-.04,0l-.19-.07c-.64-.23-.62-.23-1.22-.24h-.58s-.17.1-.17.1c-.21.14-.35.27-.39.39.04-.37.64-.66,1.33-.7Z"/>
            <path id="path81" class="st2" d="M5.55,26.71s.1.02.17.06c.12.08.18.16.18.24,0,.12-.25.09-.38-.05s-.09-.26.03-.26Z"/>
            <path id="path79" class="st2" d="M8.13,26.38s0,.01,0,.02c0,0,0-.02,0-.02Z"/>
            <path id="path78" class="st2" d="M4.92,26.02c1.3.04,2.29,1.08,2.2,2.54,0,.1-.01.21-.02.28,0-.43-.27-1.11-.62-1.57-.49-.65-1.36-1.06-2.32-1.1h-.18s0,0,0,0c.32-.11.64-.15.94-.14Z"/>
            <path id="path76" class="st2" d="M15.95,25.61s.04.09.06.18c-.02-.09-.03-.14-.06-.18Z"/>
            <path id="path75" class="st2" d="M15.49,25.34c.06,0,.12.04.24.11l-.12.14c-.66.79-2.74,1.47-4.05,1.34-.21-.02-.73-.04-1.16-.05-.56,0-.86-.03-1.04-.07-.03,0-.06-.01-.09-.02,1.65.3,4.26-.23,5.99-1.34.12-.08.17-.11.23-.11Z"/>
            <path id="path74" class="st2" d="M3.59,25.22c.06,0,.13.01.19.03.25.07.34.35.16.47-.15.1-.6.11-.75.02-.35-.22-.03-.54.4-.52Z"/>
            <path id="path73" class="st2" d="M4.1,24.89c.23.12.45.28.67.5.27.27.27.27-.09.37-.14.04-.38.16-.52.25-.12.08-.2.14-.2.15,0,0,0,0,0,0h0s0,0,0,0h0s0,0,0,0h0s-.04,0-.04,0l.23-.15c.13-.08.34-.19.47-.23.13-.05.21-.08.16-.08-.06,0-.47-.46-.64-.74-.02-.02-.03-.05-.05-.07h0Z"/>
            <path id="path69" class="st2" d="M21.3,23.96s0,0,0,0c.01.01-.1.09-.26.18.21-.12.28-.18.22-.17.01,0,.02,0,.03,0h0Z"/>
            <path id="path67" class="st2" d="M22.87,23.64c.05.03.09.06.09.06,0,0,0,0,0,0,0-.01-.04-.03-.08-.06h0Z"/>
            <path id="path66" class="st2" d="M29.79,23.5c-.28.06-.55.1-.83.14.28-.04.56-.08.83-.14Z"/>
            <path id="path65" class="st2" d="M30.92,23.21c-.28.08-.56.16-.84.22.28-.07.56-.14.84-.22Z"/>
            <path id="path64" class="st2" d="M21.35,23.05c.24.16.5.29.78.41-.13-.05-.25-.11-.35-.16-.15-.08-.29-.16-.43-.25Z"/>
            <path id="path62" class="st2" d="M21.03,22.83c.09.07.18.13.27.19-.09-.06-.18-.12-.27-.19Z"/>
            <path id="path61" class="st2" d="M32.04,22.81c-.28.11-.57.22-.86.32.29-.09.58-.2.86-.32Z"/>
            <path id="path60" class="st2" d="M20.74,22.59c.05.05.11.09.16.14-.05-.04-.11-.09-.16-.14Z"/>
            <path id="path58" class="st2" d="M20.46,22.32s.07.07.1.11c-.04-.04-.07-.07-.1-.11Z"/>
            <path id="path57" class="st2" d="M33.13,22.31c-.29.15-.59.29-.9.42.3-.13.6-.27.9-.42Z"/>
            <path id="path56" class="st2" d="M16.24,22.11c.01.1.03.21.05.31-.02-.11-.04-.21-.05-.31Z"/>
            <path id="path55" class="st2" d="M20.2,22.01s.05.07.08.11c-.03-.03-.06-.07-.08-.11Z"/>
            <path id="path53" class="st2" d="M34.19,21.7c-.3.2-.62.38-.94.55.32-.17.64-.36.94-.55Z"/>
            <path id="path52" class="st2" d="M19.94,21.65c.03.05.06.1.1.15-.03-.05-.07-.1-.1-.15Z"/>
            <path id="path51" class="st2" d="M19.63,21.09c.06.13.12.25.19.37-.07-.12-.13-.24-.19-.37Z"/>
            <path id="path50" class="st2" d="M36,20.27c-.53.52-1.14.99-1.78,1.41.64-.42,1.24-.89,1.78-1.41Z"/>
            <path id="path48" class="st2" d="M11.89,19.96c-.13.04-.25.08-.38.11.13-.04.26-.07.38-.11Z"/>
            <path id="path47" class="st2" d="M20.36,19.34c.03.07.05.14.08.22-.02-.05-.04-.11-.06-.17,0-.02-.01-.04-.02-.05Z"/>
            <path id="path43" class="st2" d="M20.14,18.04c0,.12,0,.25.02.37-.01-.12-.02-.25-.02-.37Z"/>
            <path id="path41" class="st2" d="M29.46,17.68c.23-.01.44.02.64.1-.2-.07-.41-.11-.64-.1Z"/>
            <path id="path40" class="st2" d="M20.16,17.64c-.01.12-.02.25-.02.37,0-.12,0-.25.02-.37Z"/>
            <path id="path39" class="st2" d="M30.89,17.55c-.07.06-.14.11-.23.19l-.22.19h0s.28-.24.28-.24c.06-.05.12-.09.18-.14h0Z"/>
            <path id="path38" class="st2" d="M7.73,17.27c.23,0,.47.23.34.39-.07.08-.34.07-.46-.02-.12-.09-.13-.27-.03-.33.05-.02.1-.03.15-.03Z"/>
            <path id="path37" class="st2" d="M20.22,17.24c-.02.11-.04.23-.05.34.01-.11.03-.22.05-.34Z"/>
            <path id="path35" class="st2" d="M15.35,17.03s0,0,0,0c-.03.06-.01.07.2.09.78.07.66.29-.15.29-.74,0-1.8.21-2.14.42-.14.08-.18.12-.23.07.06.04.1,0,.27-.1.64-.39,1.33-.67,1.77-.71.14-.01.26-.04.28-.06Z"/>
            <path id="path33" class="st2" d="M34.71,16.61s-.03.03-.05.04l.05-.04Z"/>
            <path id="path32" class="st2" d="M33.65,16.45c.29,0,.56.07.79.19l.13.07s-.02,0-.03,0c-.04,0-.12.04-.19.09-.07.05-.19.1-.29.12-.11.02-.42.13-.81.29.35-.15.66-.27.73-.28.23-.05-.37,0-.7.05.16-.03.34-.06.52-.08.16-.02-.02-.02-.49-.02-.64.01-.78.02-1.12.11-.6.15-.87.24-1.17.46.87-.65,1.84-1.01,2.62-.99Z"/>
            <path id="path31" class="st2" d="M38.56,16.21c-.08.29-.2.62-.37.99.16-.36.29-.71.37-.99Z"/>
            <path id="path30" class="st2" d="M14.29,15.86c.23,0,.32.32.13.54-.08.09-.13.11-.24.11-.39,0-.33-.57.06-.65.02,0,.03,0,.05,0Z"/>
            <path id="path29" class="st2" d="M37.88,15.78c.06,0,0,.2-.18.58-.21.45-.6.92-.94,1.13-.32.2-.27.07.25-.61.17-.23.4-.54.51-.7.19-.27.32-.41.36-.41h0Z"/>
            <path id="path28" class="st2" d="M15.05,15.77c.1.21.2.5.26.75-.06-.25-.16-.55-.26-.75Z"/>
            <path id="path27" class="st2" d="M37.28,15.7c-.11,0-.22.01-.34.04.12-.02.24-.04.34-.04Z"/>
            <path id="path25" class="st2" d="M37.87,15.04c.36-.02.62.07.73.29.09.18.07.49-.03.88.08-.27.1-.47.06-.53-.26-.31-1.41-.2-2.77.27-.21.07-.41.13-.44.14-.05,0-.31.19-.5.35-.08.07-.15.13-.19.17l.08-.07s.08-.07.11-.1c.96-.82,2.18-1.36,2.96-1.39Z"/>
            <path id="path24" class="st2" d="M27.01,14.96c-.3.01-.43.03-.38.04.45.13,2.09.39,2,.37-.09-.02-.15-.02-.14-.01.03.03-.19.43-.43.77-.63.88-1.53,1.57-2.55,1.92-.44.15-.43.13,0-.14.71-.44,1.33-1.02,1.81-1.69.26-.37.26-.34-.02-.48-.35-.18-.84-.55-.93-.71-.03-.05.03-.06.63-.07h0Z"/>
            <path id="path23" class="st2" d="M27.71,14.93c-.09,0-.17.01-.26.02-.08,0-.13,0-.2,0,.16,0,.3-.01.46-.02Z"/>
            <path id="path22" class="st2" d="M8.93,14.82s.04.02.06.02c-.02,0-.04-.01-.06-.02Z"/>
            <path id="path21" class="st2" d="M8.45,14.27c.15.22.28.38.38.47-.1-.09-.23-.25-.38-.47Z"/>
            <path id="path20" class="st2" d="M7.23,14.21s.09.12.19.26c.11.15.22.28.32.39-.1-.11-.21-.24-.32-.39-.1-.13-.18-.25-.19-.26Z"/>
            <path id="path17" class="st2" d="M12.27,13.2c2.38,0,4.51,1.25,5.18,2.81-.03-.03-.04.09-.04.36,0,.55-.06.7-.13.32-.29-1.66-2.17-2.85-5.01-3.17l-.21-.02-.02.3c-.01.2-.04.35-.08.46.04-.14.07-.35.07-.61v-.44s.23,0,.23,0Z"/>
            <path id="path15" class="st2" d="M31.33,11.51s.01.03.13.05c.63.08,1.23.14,1.37.14.12,0,.16,0,.15.09.02-.09-.04-.09-.17-.09h-.18l-.21.32c-.49.71-1.21,1.36-1.96,1.72-.33.16-.57.24-.45.15,0,0,.15-.11.31-.23.79-.58,1.61-1.55,1.4-1.66-.32-.17-.66-.48-.53-.48.03,0,.08,0,.14-.01Z"/>
            <path id="path14" class="st2" d="M10.24,11.08s0,.01,0,.04c0,.04,0,.06.02.05.01-.01.01-.04,0-.07,0-.01,0-.02-.01-.02h0Z"/>
            <path id="path10" class="st2" d="M32.66,8.54c.12,0,.2.03.21.1.02.12-.11.28-.32.39-.49.27-.89.08-.53-.25.16-.15.45-.24.64-.24Z"/>
            <path id="path9" class="st2" d="M32.27,7.83c-.26.06-.52.14-.78.22.26-.09.53-.16.78-.22Z"/>
            <path id="path8" class="st2" d="M35.19,7.34c.12,0,.07.08-.15.31-.36.39-.84.7-1.32.84-.56.17-.95.02-.65-.27.45-.43,1.31-.81,1.94-.87.08,0,.14-.01.18,0h0Z"/>
            <path id="path7" class="st2" d="M35.41,6.82c.73.02,1.12.18,1.19.51l-.29-.07c-.66-.17-2.43-.11-3.78.12-.22.04-.6.1-.86.15-.45.08-.94.22-1.45.41,1.46-.61,2.92-.98,4.33-1.08.32-.02.6-.03.85-.03Z"/>
            <path id="path6" class="st2" d="M6.74,6.69s0,.03,0,.06c0-.03,0-.05,0-.06Z"/>
            <path id="path5" class="st2" d="M6.74,6.68s0,0,0,0c0,0,0,0,0,0Z"/>
          </g>
        </g>
      </g>
    </g>
  </g>
</svg>