<?xml version="1.0" encoding="UTF-8"?>
<svg id="Layer_1" xmlns="http://www.w3.org/2000/svg" version="1.1" viewBox="0 0 40 40">
  <!-- Generator: Adobe Illustrator 29.7.1, SVG Export Plug-In . SVG Version: 2.1.1 Build 8)  -->
  <defs>
    <style>
      .st0 {
        fill: #fff;
      }

      .st0, .st1, .st2, .st3, .st4 {
        fill-rule: evenodd;
      }

      .st1 {
        display: none;
      }

      .st1, .st2 {
        fill: #2e72b9;
      }

      .st3 {
        fill: #fdfeff;
      }

      .st4 {
        fill: #e0e9f4;
      }
    </style>
  </defs>
  <path class="st1" d="M-7.3,47.13c0-17.66.02-35.32-.04-52.97,0-1.27.26-1.53,1.52-1.53,17.16.05,34.32.05,51.48,0,1.27,0,1.53.26,1.53,1.53-.05,17.66-.04,35.32-.04,52.97-.59.37-1.24.21-1.87.21-16.91,0-33.82,0-50.73,0-.62,0-1.28.16-1.87-.21Z"/>
  <path class="st4" d="M23.19,5.89c4.18,0,8.37-.01,12.55,0,2.49.01,3.19.84,2.65,3.3-1.57,7.19-3.18,14.38-4.8,21.56-.51,2.27-1.7,3.2-4.08,3.21-8.37.02-16.73.03-25.1,0-2.73,0-3.45-.94-2.86-3.53,1.6-7.04,3.21-14.08,4.83-21.11.62-2.68,1.54-3.42,4.27-3.42,4.18-.01,8.37,0,12.55,0Z"/>
  <path class="st2" d="M16.87,33.12c-4.18,0-8.37.02-12.55,0-2.12-.01-2.51-.51-2.03-2.59,1.62-7.04,3.29-14.06,4.87-21.11.42-1.89,1.34-2.72,3.36-2.71,8.37.08,16.74.02,25.1.03,2.1,0,2.45.45,1.98,2.58-1.53,6.91-3.07,13.82-4.63,20.72-.59,2.58-1.26,3.08-3.98,3.08-4.04,0-8.08,0-12.13,0Z"/>
  <path class="st0" d="M20.43,19.33c-.28-.33-.59-.71-.91-1.07-1.85-2.05-3.68-4.12-5.56-6.15-.86-.93-1.14-1.83-.1-2.74,1.02-.9,2.03-.82,2.96.22,2.61,2.89,5.22,5.79,7.87,8.65.99,1.07.76,1.79-.33,2.58-4.19,3.03-8.36,6.1-12.52,9.17-.94.69-1.83.86-2.58-.16-.83-1.13-.06-1.79.8-2.42,3.09-2.25,6.18-4.51,9.25-6.79.43-.32,1.04-.5,1.12-1.28Z"/>
  <path class="st3" d="M21.75,30.21c-1.13,0-2.25.04-3.38-.01-.9-.04-1.44-.54-1.42-1.49.01-.89.46-1.56,1.36-1.59,2.46-.07,4.93-.05,7.39,0,.78.02,1.36.53,1.36,1.34,0,.94-.5,1.66-1.5,1.72-1.26.08-2.53.02-3.8.02,0,0,0,0,0,.01Z"/>
</svg>