<?xml version="1.0" encoding="UTF-8"?>
<svg id="Layer_1" data-name="Layer 1" xmlns="http://www.w3.org/2000/svg" version="1.1" viewBox="0 0 40 40">
  <defs>
    <style>
      .cls-1 {
        fill: #ee2c25;
        stroke-width: 0px;
      }
    </style>
  </defs>
  <path class="cls-1" d="M34.73,14.41c-3-.5-8.37-.69-10.21,2.14-1.42,2.19,1.26,5.18,3.7,8.08,1.96,2.32,4.08,4.54,3.22,5.84-.71,1.06-5.26,1.06-6.83,1.14-1.9.1-4.64.11-5.12.37-.43.23-.67.95.94,1.24,1.29.23,4.38.71,7.62.71,3.39,0,6.96-.56,7.73-3.2.62-2.12-1.53-4.4-3.43-6.7-2.07-2.53-4.17-4.33-3.99-6.11.13-1.39,2.85-1.47,7.35-1.55.94-.02,2.8-.06,2.44-.81-.32-.66-1.71-.87-3.42-1.16"/>
  <path class="cls-1" d="M20.89,20.71c-1.93-1.33-5.36-1.77-8.19-1.63-2.52.13-6.85.94-6.68,1.74.15.87,2.89.6,4.15.6,2.76,0,7.14.17,7.83,1.96,1.49,3.86-8.6,10.78-10.75,10.11-.97-.3,1.98-5.33,3.05-7.14.64-1.08,1.61-2.78.78-2.89-.92-.13-1.94,1.47-2.6,2.39-1.8,2.5-3.63,5.23-5.11,8.04-.46.87-1.97,3.48-1.45,3.81.48.31,2.79-.13,5.73-1.3,9.23-3.67,13.38-8.46,14.5-12.42.39-1.39-.28-2.61-1.24-3.27"/>
  <path class="cls-1" d="M14.04,3.81c-.19-.63,2.89-1.44,6.26-1.59,3.4-.15,7.42.53,8.18,2.79,1.23,3.7-5,9.09-10.43,11.74-1.33.65-2.14.83-2.47.78-.32-.04-.37-.34-.26-.55.19-.39,1.07-1.18,2.24-2.04,6.11-4.49,8.09-7.78,6.94-9.12-.74-.85-3.84-1.45-7.05-1.45-.87,0-3.17.19-3.4-.57"/>
</svg>