<?xml version="1.0" encoding="UTF-8"?>
<svg xmlns="http://www.w3.org/2000/svg" version="1.1" viewBox="0 0 40 40">
  <!-- Generator: Adobe Illustrator 29.7.1, SVG Export Plug-In . SVG Version: 2.1.1 Build 8)  -->
  <defs>
    <style>
      .st0 {
        fill-rule: evenodd;
      }

      .st0, .st1 {
        fill: #5f63ad;
      }

      .st2 {
        fill: none;
        stroke: #231f20;
        stroke-miterlimit: 10;
        stroke-width: .5px;
      }

      .st3 {
        display: none;
      }
    </style>
  </defs>
  <g id="Layer_1">
    <g>
      <path class="st0" d="M39.85,20.28c0-2.82-1.37-5.05-3.98-5.05s-4.21,2.23-4.21,5.03c0,3.32,1.87,5,4.57,5,1.31,0,2.31-.3,3.05-.72v-2.21c-.75.37-1.61.61-2.7.61s-2.02-.37-2.14-1.68h5.39c0-.14.02-.72.02-.98ZM34.4,19.23c0-1.25.76-1.76,1.46-1.76s1.39.52,1.39,1.76h-2.85Z"/>
      <path class="st0" d="M27.4,15.22c-1.08,0-1.78.51-2.16.86l-.14-.68h-2.43v12.86l2.76-.58v-3.12c.41.29.99.69,1.96.69,1.97,0,3.77-1.59,3.77-5.08-.01-3.2-1.83-4.94-3.76-4.94ZM26.74,22.82c-.65,0-1.04-.23-1.3-.52v-4.09c.28-.32.67-.54,1.3-.54,1,0,1.7,1.12,1.7,2.57s-.68,2.58-1.7,2.58Z"/>
      <polygon class="st0" points="18.88 14.57 21.64 13.98 21.64 11.74 18.88 12.32 18.88 14.57"/>
      <rect class="st1" x="18.88" y="15.41" width="2.77" height="9.65"/>
      <path class="st0" d="M15.91,16.23l-.18-.82h-2.38v9.65h2.76v-6.54c.65-.85,1.75-.69,2.1-.57v-2.54c-.35-.13-1.64-.37-2.29.82Z"/>
      <path class="st0" d="M10.39,13.02l-2.69.57v8.83c-.01,1.63,1.21,2.83,2.85,2.83.9,0,1.57-.17,1.93-.36v-2.24c-.35.14-2.1.65-2.1-.98v-3.92h2.1v-2.35h-2.1v-2.39Z"/>
      <path class="st0" d="M2.94,18.21c0-.43.35-.6.94-.6.84,0,1.9.25,2.74.71v-2.59c-.92-.36-1.82-.51-2.74-.51-2.24,0-3.73,1.17-3.73,3.12,0,3.04,4.19,2.56,4.19,3.87,0,.51-.44.67-1.06.67-.92,0-2.08-.37-3.01-.88v2.62c1.03.44,2.06.63,3.01.63,2.29,0,3.87-1.14,3.87-3.11-.01-3.29-4.21-2.7-4.21-3.94Z"/>
    </g>
  </g>
  <g id="Grid_Base" class="st3">
    <line class="st2" x1="20" x2="20" y2="40"/>
  </g>
</svg>