<?xml version="1.0" encoding="UTF-8"?>
<svg id="Layer_1" data-name="Layer 1" xmlns="http://www.w3.org/2000/svg" viewBox="0 0 2194 1953.85">
  <defs>
    <style>
      .cls-1 {
        fill: #fff;
      }
    </style>
  </defs>
  <path class="cls-1" d="M2194,977.15c0-145.34-182.01-283.08-461.07-368.5,64.4-284.42,35.78-510.71-90.34-583.16-29.07-16.99-63.06-25.04-100.17-25.04V100.17c20.57,0,37.12,4.02,50.98,11.63,60.82,34.88,87.21,167.7,66.63,338.54-4.92,42.04-12.97,86.31-22.81,131.48-87.65-21.47-183.36-38.01-283.98-48.75-60.37-82.73-122.98-157.86-186.04-223.6,145.79-135.5,282.64-209.74,375.65-209.74V0c-122.98,0-283.98,87.65-446.76,239.7C933.32,88.55,772.33,1.79,649.35,1.79V101.52c92.57,0,229.86,73.79,375.65,208.4-62.61,65.74-125.22,140.42-184.7,223.16-101.07,10.73-196.77,27.28-284.42,49.19-10.29-44.72-17.89-88.1-23.25-129.69-21.02-170.83,4.92-303.65,65.29-338.98,13.42-8.05,30.86-11.63,51.43-11.63V2.24c-37.57,0-71.55,8.05-101.07,25.04-125.67,72.45-153.84,298.29-88.99,581.82C181.12,694.96,0,832.25,0,977.15s182.01,283.08,461.07,368.5c-64.4,284.42-35.78,510.71,90.34,583.16,29.07,16.99,63.06,25.04,100.62,25.04,122.98,0,283.98-87.65,446.76-239.7,162.78,151.16,323.78,237.91,446.76,237.91,37.57,0,71.55-8.05,101.07-25.04,125.67-72.45,153.84-298.29,88.99-581.82,277.27-85.42,458.39-223.16,458.39-368.05h0Zm-582.26-298.29c-16.55,57.69-37.12,117.17-60.37,176.65-18.34-35.78-37.57-71.55-58.58-107.33-20.57-35.78-42.48-70.66-64.4-104.65,63.5,9.39,124.77,21.02,183.36,35.33h0Zm-204.82,476.28c-34.88,60.37-70.66,117.62-107.78,170.83-66.63,5.81-134.16,8.94-202.14,8.94s-135.06-3.13-201.24-8.5c-37.12-53.22-73.34-110.01-108.22-169.94-33.99-58.58-64.85-118.06-93.02-177.99,27.73-59.93,59.03-119.85,92.57-178.44,34.88-60.37,70.66-117.62,107.78-170.83,66.63-5.81,134.16-8.94,202.14-8.94s135.06,3.13,201.24,8.5c37.12,53.22,73.34,110.01,108.22,169.94,33.99,58.58,64.85,118.06,93.02,177.99-28.17,59.93-59.03,119.85-92.57,178.44h0Zm144.45-58.14c24.15,59.93,44.72,119.85,61.71,177.99-58.58,14.31-120.3,26.39-184.25,35.78,21.91-34.44,43.83-69.76,64.4-105.99,20.57-35.78,39.8-72,58.14-107.78h0Zm-453.47,477.17c-41.59-42.93-83.18-90.78-124.32-143.11,40.25,1.79,81.39,3.13,122.98,3.13s83.63-.89,124.32-3.13c-40.25,52.32-81.84,100.17-122.98,143.11Zm-332.72-263.41c-63.5-9.39-124.77-21.02-183.36-35.33,16.55-57.69,37.12-117.17,60.37-176.65,18.34,35.78,37.57,71.55,58.58,107.33s42.48,70.66,64.4,104.65Zm330.49-930.64c41.59,42.93,83.18,90.78,124.32,143.11-40.25-1.79-81.39-3.13-122.98-3.13s-83.63,.89-124.32,3.13c40.25-52.32,81.84-100.17,122.98-143.11Zm-330.93,263.41c-21.91,34.43-43.83,69.76-64.4,105.99-20.57,35.78-39.8,71.55-58.14,107.33-24.15-59.93-44.72-119.85-61.71-177.99,58.58-13.86,120.3-25.94,184.25-35.33h0Zm-404.72,559.9c-158.31-67.53-260.72-156.08-260.72-226.29s102.41-159.21,260.72-226.29c38.46-16.55,80.5-31.3,123.88-45.17,25.49,87.65,59.03,178.88,100.62,272.35-41.14,93.02-74.24,183.8-99.28,271.01-44.27-13.86-86.31-29.07-125.22-45.62h0Zm240.6,639.06c-60.82-34.88-87.21-167.7-66.63-338.54,4.92-42.04,12.97-86.31,22.81-131.48,87.65,21.47,183.36,38.01,283.98,48.75,60.37,82.73,122.98,157.86,186.04,223.6-145.79,135.5-282.64,209.74-375.65,209.74-20.12-.45-37.12-4.47-50.53-12.07h0Zm1060.78-340.77c21.02,170.83-4.92,303.65-65.29,338.98-13.42,8.05-30.86,11.63-51.43,11.63-92.57,0-229.86-73.79-375.65-208.4,62.61-65.74,125.22-140.42,184.7-223.16,101.07-10.73,196.77-27.28,284.42-49.19,10.29,45.17,18.34,88.55,23.25,130.14Zm172.17-298.29c-38.46,16.55-80.5,31.3-123.88,45.17-25.49-87.65-59.03-178.88-100.62-272.35,41.14-93.02,74.24-183.8,99.28-271.01,44.27,13.86,86.31,29.07,125.67,45.62,158.31,67.53,260.72,156.08,260.72,226.29-.45,70.21-102.86,159.21-261.17,226.29h0Z"/>
  <circle class="cls-1" cx="1096.55" cy="977.15" r="204.37"/>
</svg>