<?xml version="1.0" encoding="UTF-8"?>
<svg id="Layer_1" xmlns="http://www.w3.org/2000/svg" version="1.1" viewBox="0 0 40 40">
  <!-- Generator: Adobe Illustrator 29.7.1, SVG Export Plug-In . SVG Version: 2.1.1 Build 8)  -->
  <defs>
    <style>
      .st0 {
        fill: #fff;
        fill-rule: evenodd;
      }
    </style>
  </defs>
  <path class="st0" d="M13.84,1.56c1.54-.63,3.21-.86,4.85-.66,2.12.24,4.02,1.15,5.68,2.71.05.04.11.06.17.05,2.24-.55,4.4-.36,6.47.58l.1.05.25.12c2.16,1.12,3.71,2.82,4.65,5.1.44,1.08.67,2.21.67,3.39.03.88-.07,1.75-.29,2.6-.02.09,0,.18.06.25,1.25,1.27,2.12,2.87,2.51,4.61.61,3.03-.02,5.76-1.89,8.19l-.29.35c-1.24,1.42-2.86,2.44-4.68,2.95-.08.02-.14.08-.17.16-.41,1.17-.81,2.17-1.57,3.17-1.91,2.52-4.72,3.92-7.88,3.91-2.52-.01-4.76-.94-6.71-2.77-.06-.06-.14-.07-.22-.05-.83.27-1.66.3-2.56.29-1.44-.01-2.85-.35-4.14-.99-1.35-.67-2.52-1.64-3.42-2.84-.32-.43-.64-.83-.88-1.31-.32-.66-.59-1.34-.79-2.04-.42-1.6-.43-3.28-.03-4.88.01-.04.02-.08.01-.12,0-.04-.03-.08-.06-.1-.98-.99-1.73-2.19-2.2-3.51-.31-.81-.49-1.67-.53-2.53-.08-1.14.02-2.29.3-3.4.72-2.36,2.09-4.22,4.11-5.57.45-.3.88-.53,1.28-.7.46-.19.91-.35,1.37-.48.07-.02.12-.07.14-.14.35-1.25.95-2.42,1.76-3.43,1.08-1.35,2.39-2.33,3.91-2.95ZM12.56,14.07c-.37-.65-1.2-.87-1.84-.5-.65.37-.87,1.2-.5,1.84l2.7,4.72-2.69,4.54c-.35.66-.11,1.48.55,1.83.62.33,1.39.13,1.77-.45l3.09-5.21c.25-.42.25-.94.01-1.36,0,0-3.09-5.41-3.09-5.41ZM21.24,24.01c-.75.04-1.31.68-1.27,1.43.04.68.59,1.23,1.27,1.27h7.73c.75-.04,1.32-.67,1.29-1.42-.03-.7-.59-1.25-1.29-1.29h-7.73Z"/>
</svg>