<?xml version="1.0" encoding="UTF-8"?>
<svg id="Layer_1" data-name="Layer 1" xmlns="http://www.w3.org/2000/svg" version="1.1" viewBox="0 0 40 40">
  <defs>
    <style>
      .cls-1 {
        fill: #f6df19;
      }

      .cls-1, .cls-2 {
        stroke-width: 0px;
      }

      .cls-2 {
        fill: #010101;
      }
    </style>
  </defs>
  <rect class="cls-1" y="-.02" width="40" height="40"/>
  <path class="cls-2" d="M26.87,31.23c.81,1.32,1.85,2.28,3.71,2.28,1.56,0,2.55-.78,2.55-1.85,0-1.29-1.02-1.75-2.74-2.5l-.94-.4c-2.71-1.16-4.51-2.6-4.51-5.66,0-2.82,2.15-4.97,5.5-4.97,2.39,0,4.11.83,5.35,3.01l-2.93,1.88c-.64-1.16-1.34-1.61-2.42-1.61s-1.8.7-1.8,1.61c0,1.13.7,1.58,2.31,2.28l.94.4c3.19,1.37,5,2.77,5,5.9,0,3.38-2.66,5.24-6.23,5.24s-5.75-1.66-6.85-3.84l3.05-1.77ZM13.59,31.56c.59,1.05,1.13,1.93,2.42,1.93s2.01-.48,2.01-2.36v-12.78h3.76v12.83c0,3.89-2.28,5.66-5.61,5.66-3.01,0-4.75-1.56-5.64-3.43l3.06-1.85Z"/>
</svg>