<?xml version="1.0" encoding="UTF-8"?>
<svg id="Layer_1" data-name="Layer 1" xmlns="http://www.w3.org/2000/svg" version="1.1" viewBox="0 0 40 40">
  <defs>
    <style>
      .cls-1 {
        fill: #7fc6dc;
      }

      .cls-1, .cls-2, .cls-3, .cls-4 {
        stroke-width: 0px;
      }

      .cls-2 {
        fill: #38a5cb;
      }

      .cls-3 {
        fill: #fff;
      }

      .cls-4 {
        fill: #396980;
      }
    </style>
  </defs>
  <g id="_7dc6ddff" data-name="#7dc6ddff">
    <path class="cls-1" d="M.4,5.93c2.11-1.27,4.22-2.56,6.35-3.82,0,9.75-.01,19.5,0,29.25-.96.6-1.94,1.17-2.9,1.76-1.15.69-2.29,1.39-3.45,2.07,0-9.75,0-19.51,0-29.26Z"/>
  </g>
  <g id="_37a5ccff" data-name="#37a5ccff">
    <path class="cls-2" d="M6.75,2.11c9.25-.02,18.5,0,27.75,0,1.14-.07,2.21.91,2.22,2.06.02,1.51,0,3.03,0,4.54,0,7.55,0,15.1,0,22.65-9.99.01-19.98,0-29.97,0-.02-9.75,0-19.5,0-29.25M13.35,8.64c0,5.41,0,10.82,0,16.23h3.51c0-3.58,0-7.17,0-10.75.99,3.57,1.89,7.17,2.85,10.75,1.27,0,2.54,0,3.81,0,.92-3.43,1.79-6.87,2.72-10.29.01,3.43,0,6.86,0,10.29,1.29,0,2.58,0,3.87,0,0-5.41,0-10.81,0-16.22-1.66-.03-3.31,0-4.97-.01-1.13,4.31-2.27,8.62-3.41,12.93-1.1-4.3-2.16-8.62-3.25-12.93-1.71,0-3.42,0-5.13,0Z"/>
  </g>
  <g id="_ffffffff" data-name="#ffffffff">
    <path class="cls-3" d="M13.35,8.64c1.71,0,3.42,0,5.13,0,1.09,4.31,2.15,8.62,3.25,12.93,1.14-4.31,2.28-8.62,3.41-12.93,1.66,0,3.31-.01,4.97.01-.02,5.41,0,10.81,0,16.22-1.29,0-2.58,0-3.87,0,0-3.43,0-6.86,0-10.29-.92,3.43-1.8,6.86-2.72,10.29-1.27,0-2.54,0-3.81,0-.96-3.58-1.86-7.18-2.85-10.75,0,3.58,0,7.17,0,10.75h-3.51c0-5.41,0-10.82,0-16.23Z"/>
  </g>
  <g id="_36697fff" data-name="#36697fff">
    <path class="cls-4" d="M36.73,8.7c.96,0,1.91,0,2.87,0,0,9.73.01,19.47,0,29.2H6.04c-.4-.06-.81-.12-1.16-.33-.62-.36-1.03-1.06-1.03-1.79,0-.89,0-1.77,0-2.66.96-.59,1.94-1.16,2.9-1.76,9.99,0,19.98,0,29.97,0,0-7.55,0-15.1,0-22.65Z"/>
  </g>
</svg>