<?xml version="1.0" encoding="UTF-8"?>
<svg id="Layer_1" xmlns="http://www.w3.org/2000/svg" version="1.1" viewBox="0 0 40 40">
  <!-- Generator: Adobe Illustrator 29.7.1, SVG Export Plug-In . SVG Version: 2.1.1 Build 8)  -->
  <defs>
    <style>
      .st0 {
        fill: #fff;
      }
    </style>
  </defs>
  <path class="st0" d="M.29,19c0,2.59,1.66,4.4,3.97,4.4s3.97-1.81,3.97-4.4-1.66-4.4-3.97-4.4-3.97,1.81-3.97,4.4ZM6.71,19c0,1.85-1.01,3.05-2.45,3.05s-2.45-1.2-2.45-3.05,1.01-3.05,2.45-3.05,2.45,1.2,2.45,3.05Z"/>
  <path class="st0" d="M12.51,23.39c1.75,0,2.74-1.47,2.74-3.24s-1-3.24-2.74-3.24c-.81,0-1.4.32-1.79.78v-.67h-1.43v8.38h1.43v-2.79c.39.46.99.78,1.79.78h0ZM10.68,19.97c0-1.18.67-1.82,1.54-1.82,1.03,0,1.59.81,1.59,2s-.56,2-1.59,2c-.88,0-1.54-.65-1.54-1.81v-.37Z"/>
  <path class="st0" d="M19.11,23.39c1.25,0,2.23-.65,2.67-1.75l-1.22-.46c-.19.64-.75,1-1.45,1-.91,0-1.56-.65-1.66-1.72h4.37v-.48c0-1.71-.96-3.08-2.77-3.08s-2.97,1.41-2.97,3.24c0,1.92,1.25,3.24,3.03,3.24h0ZM19.04,18.1c.9,0,1.33.59,1.34,1.28h-2.86c.21-.84.78-1.28,1.52-1.28h0Z"/>
  <path class="st0" d="M22.89,23.26h1.43v-3.66c0-.89.65-1.37,1.3-1.37.78,0,1.09.56,1.09,1.33v3.7h1.43v-4.11c0-1.34-.78-2.25-2.09-2.25-.81,0-1.37.37-1.72.78v-.67h-1.43v6.24Z"/>
  <path class="st0" d="M32.31,14.73l-3.23,8.53h1.51l.72-1.95h3.68l.74,1.95h1.53l-3.23-8.53h-1.72ZM33.14,16.42l1.35,3.56h-2.69l1.33-3.56Z"/>
  <path class="st0" d="M39.71,14.75h-1.52v8.53h1.52v-8.53Z"/>
</svg>