<?xml version="1.0" encoding="UTF-8"?>
<svg id="Layer_1" data-name="Layer 1" xmlns="http://www.w3.org/2000/svg" version="1.1" viewBox="0 0 40 40">
  <defs>
    <style>
      .cls-1 {
        fill: #56a1d8;
      }

      .cls-1, .cls-2 {
        stroke-width: 0px;
      }

      .cls-2 {
        fill: #071f35;
      }
    </style>
  </defs>
  <g id="Layer_2" data-name="Layer 2">
    <g id="Surfaces">
      <g id="Photo_Surface" data-name="Photo Surface">
        <g id="Outline_no_shadow" data-name="Outline no shadow">
          <path class="cls-2" d="M7.3.82h25.41c3.85,0,6.97,3.11,6.97,6.97v24.42c0,3.85-3.11,6.97-6.97,6.97H7.3c-3.85,0-6.97-3.11-6.97-6.97V7.79C.33,3.94,3.45.82,7.3.82Z"/>
        </g>
      </g>
    </g>
    <g id="Outlined_Mnemonics_Logos" data-name="Outlined Mnemonics Logos">
      <g id="Ps">
        <path class="cls-1" d="M9.18,27.72V10.85c0-.11.05-.18.16-.18.28,0,.54,0,.92-.02.39-.02.8-.02,1.25-.03.44-.02.92-.02,1.43-.03.51-.02,1-.02,1.49-.02,1.34,0,2.46.16,3.38.51.82.28,1.57.74,2.2,1.34.52.52.93,1.16,1.2,1.87.25.69.38,1.39.38,2.13,0,1.41-.33,2.57-.98,3.49s-1.57,1.61-2.64,2c-1.11.41-2.34.56-3.69.56-.39,0-.66,0-.82-.02s-.39-.02-.7-.02v5.26c.02.11-.07.21-.18.23h-3.18c-.13,0-.2-.07-.2-.21ZM12.76,13.84v5.51c.23.02.44.03.64.03h.87c.64,0,1.28-.1,1.88-.3.52-.15.98-.46,1.34-.87.34-.41.51-.97.51-1.69.02-.51-.11-1.02-.38-1.46-.28-.43-.67-.75-1.15-.93-.61-.25-1.26-.34-1.93-.33-.43,0-.8,0-1.11.02-.33-.02-.56,0-.67.02h0Z"/>
        <path class="cls-1" d="M31.8,18.34c-.49-.26-1.02-.44-1.57-.56-.61-.13-1.21-.21-1.84-.21-.33-.02-.67.03-.98.11-.21.05-.39.16-.51.33-.08.13-.13.3-.13.44s.07.3.16.43c.15.18.34.33.56.44.38.2.77.38,1.16.54.89.3,1.74.7,2.52,1.2.54.34.98.8,1.29,1.36.26.52.39,1.1.38,1.69.02.77-.21,1.54-.64,2.18-.46.66-1.1,1.16-1.84,1.46-.8.34-1.79.52-2.97.52-.75,0-1.49-.07-2.23-.21-.57-.1-1.15-.28-1.67-.52-.11-.07-.2-.18-.18-.31v-2.85s.02-.11.07-.15c.05-.03.1-.02.15.02.64.38,1.31.64,2.03.8.62.16,1.28.25,1.93.25s1.07-.08,1.36-.23c.26-.11.44-.39.44-.69,0-.23-.13-.44-.39-.66-.26-.21-.8-.46-1.61-.77-.84-.3-1.61-.69-2.33-1.18-.51-.36-.93-.84-1.25-1.39-.26-.52-.39-1.1-.38-1.67,0-.7.2-1.38.56-1.98.41-.66,1.02-1.18,1.72-1.51.77-.39,1.74-.57,2.9-.57.67,0,1.36.05,2.03.15.49.07.97.2,1.41.38.07.02.13.08.16.15.02.07.03.13.03.2v2.67c0,.07-.03.13-.08.16-.15.03-.23.03-.3,0Z"/>
      </g>
    </g>
  </g>
</svg>