<?xml version="1.0" encoding="UTF-8"?>
<svg id="Layer_1" xmlns="http://www.w3.org/2000/svg" version="1.1" viewBox="0 0 40 40">
  <!-- Generator: Adobe Illustrator 29.7.1, SVG Export Plug-In . SVG Version: 2.1.1 Build 8)  -->
  <defs>
    <style>
      .st0 {
        fill: none;
        stroke: #df6d26;
        stroke-width: 2px;
      }
    </style>
  </defs>
  <ellipse class="st0" cx="8.93" cy="12.93" rx="7.05" ry="2.9"/>
  <path class="st0" d="M1.88,12.93v12.44c.14,1.61,3.4,2.91,7.3,2.91s6.94-1.3,6.8-2.91v-12.44M1.88,17.08c.14,1.61,3.4,2.91,7.3,2.91s6.94-1.3,6.8-2.91h0M1.88,21.22c.14,1.61,3.4,2.91,7.3,2.91s6.94-1.3,6.8-2.91h0"/>
  <path class="st0" d="M23.86,17.08c0-1.14-.93-2.07-2.07-2.07s-2.07.93-2.07,2.07h0c-.04,1.14.67,2.1,1.59,2.14.16,0,.33-.02.49-.07.92,0,1.66.91,1.66,2.06,0,0,0,.01,0,.02-.11,1.14-1.14,1.98-2.28,1.87-1.14-.11-1.98-1.14-1.87-2.28h0"/>
  <path class="st0" d="M30.08,23.3c-2.26.37-4.39-1.16-4.76-3.42-.37-2.26,1.16-4.39,3.42-4.76,2.26-.37,4.39,1.16,4.76,3.42.29,1.77-.59,3.52-2.17,4.35M30.08,21.22l2.49,3.32"/>
  <path class="st0" d="M35.47,14.59v6.63c0,1.14.93,2.07,2.07,2.07h1.66"/>
</svg>