<?xml version="1.0" encoding="UTF-8"?>
<svg xmlns="http://www.w3.org/2000/svg" xmlns:xlink="http://www.w3.org/1999/xlink" version="1.1" viewBox="0 0 40 40">
  <!-- Generator: Adobe Illustrator 29.7.1, SVG Export Plug-In . SVG Version: 2.1.1 Build 8)  -->
  <defs>
    <style>
      .st0, .st1 {
        fill: none;
      }

      .st2 {
        fill: #4cbbeb;
        fill-rule: evenodd;
      }

      .st1 {
        stroke: #231f20;
        stroke-miterlimit: 10;
        stroke-width: .5px;
      }

      .st3 {
        display: none;
      }

      .st4 {
        clip-path: url(#clippath);
      }
    </style>
    <clipPath id="clippath">
      <rect class="st0" x=".14" y="8.08" width="39.72" height="23.83"/>
    </clipPath>
  </defs>
  <g id="Layer_1">
    <g class="st4">
      <path class="st2" d="M20,8.08c-5.3,0-8.61,2.65-9.93,7.94,1.99-2.65,4.3-3.64,6.95-2.98,1.51.38,2.59,1.47,3.79,2.69,1.95,1.98,4.2,4.26,9.12,4.26,5.3,0,8.61-2.65,9.93-7.94-1.99,2.65-4.3,3.64-6.95,2.98-1.51-.38-2.59-1.47-3.79-2.69-1.95-1.98-4.2-4.26-9.12-4.26ZM10.07,20c-5.3,0-8.61,2.65-9.93,7.94,1.99-2.65,4.3-3.64,6.95-2.98,1.51.38,2.59,1.47,3.79,2.69,1.95,1.98,4.2,4.26,9.12,4.26,5.3,0,8.61-2.65,9.93-7.94-1.99,2.65-4.3,3.64-6.95,2.98-1.51-.38-2.59-1.47-3.79-2.69-1.95-1.98-4.2-4.26-9.12-4.26Z"/>
    </g>
  </g>
  <g id="Grid_Base" class="st3">
    <line class="st1" x1="20" x2="20" y2="40"/>
  </g>
</svg>