<?xml version="1.0" encoding="UTF-8"?>
<svg id="Layer_1" data-name="Layer 1" xmlns="http://www.w3.org/2000/svg" version="1.1" viewBox="0 0 40 40">
  <defs>
    <style>
      .cls-1 {
        fill: #fff;
        fill-rule: evenodd;
      }

      .cls-1, .cls-2 {
        stroke-width: 0px;
      }

      .cls-2 {
        fill: #3978bd;
      }
    </style>
  </defs>
  <rect class="cls-2" x="1.25" y="1.25" width="37.5" height="37.5" rx="3.66" ry="3.66"/>
  <rect class="cls-2" x="1.25" y="1.25" width="37.5" height="37.5" rx="3.66" ry="3.66"/>
  <path class="cls-1" d="M24.46,31.09v3.67c.6.31,1.3.53,2.11.69s1.67.23,2.57.23,1.71-.08,2.5-.25c.79-.17,1.48-.44,2.08-.83.6-.39,1.07-.89,1.42-1.51s.52-1.39.52-2.31c0-.66-.1-1.25-.3-1.75s-.49-.95-.86-1.33c-.37-.39-.82-.74-1.35-1.05s-1.11-.6-1.77-.88c-.48-.2-.91-.39-1.3-.58-.38-.19-.71-.38-.97-.57-.27-.19-.47-.4-.62-.62-.15-.22-.22-.46-.22-.74,0-.25.06-.48.19-.68s.31-.38.55-.52c.24-.15.53-.26.87-.34.34-.08.73-.12,1.15-.12.31,0,.63.02.97.07.34.05.68.12,1.03.21.34.1.68.22,1,.36.32.15.62.31.9.5v-3.43c-.56-.21-1.17-.37-1.83-.48s-1.42-.15-2.28-.15-1.7.09-2.48.28-1.47.48-2.06.88c-.59.4-1.06.9-1.4,1.52-.34.61-.52,1.35-.52,2.21,0,1.09.32,2.02.95,2.8.63.77,1.59,1.42,2.87,1.96.5.21.97.41,1.41.61s.81.4,1.13.62c.32.21.57.45.75.7.18.25.28.54.28.86,0,.24-.06.46-.17.66s-.29.38-.52.53-.52.27-.87.35c-.35.08-.75.13-1.22.13-.79,0-1.58-.14-2.36-.42-.78-.28-1.5-.7-2.17-1.25h0ZM18.3,22.06h4.7v-3.01h-13.11v3.01h4.68v13.4h3.73v-13.4Z"/>
</svg>