<?xml version="1.0" encoding="UTF-8"?>
<svg xmlns="http://www.w3.org/2000/svg" viewBox="0 0 90.99 76.85">
  <defs>
    <style>
      .cls-1 {
        fill: #231f20;
      }

      .cls-2, .cls-3 {
        fill: #f7ec13;
      }

      .cls-3 {
        stroke: #231f20;
        stroke-miterlimit: 10;
        stroke-width: 4px;
      }
    </style>
  </defs>
  <g id="Layer_8" data-name="Layer 8">
    <path class="cls-2" d="M86.79,62.84L54.74,10.15s-4.55-7.54-4.87-7.96c-.42-.56-.96-1.05-1.59-1.42-2.62-1.55-5.99-.67-7.53,1.98-.4.68-4.23,6.96-4.23,6.96L4.2,62.84s-4.2,6.16-4.2,8.4c0,3.07,2.46,5.56,5.5,5.56.78,0,6.64.04,6.64.04h66.7s5.86-.04,6.64-.04c3.04,0,5.5-2.49,5.5-5.56,0-2.25-4.2-8.4-4.2-8.4Z"/>
  </g>
  <g id="Layer_2" data-name="Layer 2">
    <path class="cls-3" d="M78.86,60.28l-25.83-42.03s-3.67-6.01-3.93-6.35c-.34-.45-.77-.83-1.28-1.14-2.11-1.24-4.83-.53-6.07,1.58-.32.54-3.41,5.55-3.41,5.55L12.29,60.28s-3.39,4.91-3.39,6.7c0,2.45,1.98,4.43,4.43,4.43.63,0,5.35.03,5.35.03h53.76s4.72-.03,5.35-.03c2.45,0,4.43-1.98,4.43-4.43,0-1.79-3.39-6.7-3.39-6.7Z"/>
    <path class="cls-1" d="M54.23,66.14c1.45-2.51,13.9-24.7,4.64-32l-.05-.04c-9.3-7.23-28.07,9.68-30.18,11.63l-1.69,1.57,10.62,8.63-9.37,12.19,1.31.31,8.84-11.74s2.62-3.4,5.55-6.77c0,0,7.77-8.26,8.7-7.67s-5.64,10.11-5.64,10.11c-2.62,3.61-5.35,6.91-5.35,6.91l-7.45,9.38,1.37.23,6.98-8.83,10.55,8.07,1.14-1.97ZM45.6,57.34l2.63-4.12h-.02c.69-1.01,7.69-11.18,5.64-12.68-2.16-1.58-11.43,8.19-11.43,8.19h0s-3.24,3.36-3.24,3.36l-6.09-4.95c5.87-4.99,18.23-13.8,23.27-9.88l.02.02c4.99,3.93-.94,18-4.53,24.85l-6.26-4.79Z"/>
    <circle class="cls-1" cx="42.18" cy="26.58" r="2.24"/>
    <circle class="cls-1" cx="33.54" cy="34.76" r=".98"/>
    <circle class="cls-1" cx="38.07" cy="30.32" r="2.43"/>
    <circle class="cls-1" cx="42.98" cy="21.02" r="1.36"/>
    <circle class="cls-1" cx="48.21" cy="25.79" r="1.26"/>
    <circle class="cls-1" cx="45.22" cy="31.67" r="1.82"/>
    <circle class="cls-1" cx="37.65" cy="37.19" r="1.26"/>
    <circle class="cls-1" cx="46.62" cy="18.4" r="1.54"/>
    <path class="cls-1" d="M63.28,43.08s6.15,8.71,10.69,19.21c0,0-9.18-16.18-11.07-17.51l.38-1.7Z"/>
    <path class="cls-1" d="M62.62,52.35s6.43,8.23,8.42,14.57c0,0-7.48-12.3-9.27-13.63l.85-.95Z"/>
    <path class="cls-1" d="M64.84,50.33s6.15,8.71,10.69,19.21c0,0-9.18-16.18-11.07-17.51l.38-1.7Z"/>
    <path class="cls-1" d="M57.89,52.22s6.15,8.71,10.69,19.21c0,0-9.18-16.18-11.07-17.51l.38-1.7Z"/>
  </g>
</svg>